<svg width="242" height="59" viewBox="0 0 242 59" fill="none" xmlns="http://www.w3.org/2000/svg">
<path d="M1 38.1635C21.0669 44.4456 40.3847 49.0382 61.9945 53.061C79.2384 56.2711 98.518 56.3435 116.359 56.8072C135.096 57.2942 150.041 57.9389 165.715 51.3186C184.57 43.3545 198.488 26.0334 197.243 12.2889C196.651 5.7498 180.696 1.41263 171.313 1.31175C164.389 1.23731 157.752 -0.314982 157.464 4.27383C157.215 8.24576 154.478 12.7731 156.433 16.8191C158.246 20.5716 160.116 19.1622 160.116 16.2093C160.116 5.65305 134.332 -2.25963 121.221 5.49351C99.0732 18.5901 130.023 31.9458 145.236 40.3415C156.353 46.4772 171.842 51.2812 185.604 54.8034C202.93 59.2379 222.583 57.7655 241 57.7655" stroke="black" stroke-linecap="round"/>
</svg>
