<svg width="427" height="74" viewBox="0 0 427 74" fill="none" xmlns="http://www.w3.org/2000/svg">
<path d="M1 58.4286C1.47938 61.2279 7.03064 64.2742 9.06904 65.4429C16.6122 69.7676 25.5366 72.0403 33.8722 72.6178C43.3536 73.2747 52.9374 72.8855 62.4347 72.8855C74.7209 72.8855 86.8486 71.1963 98.6537 67.076C112.104 62.3816 124.747 54.4026 138.678 51.4143C148.186 49.3748 158.392 49.7544 168.02 49.7544C180.197 49.7544 192.687 49.9507 204.652 52.8065C210.376 54.1729 216.065 55.9228 221.798 57.3577C225.424 58.2651 229.167 58.8311 232.71 60.1152C236.428 61.463 240.952 61.32 244.813 61.32C250.429 61.32 255.534 60.7277 261.066 59.4192C269.695 57.378 278.496 54.042 286.282 49.0316C291.968 45.3726 296.019 39.6731 300.38 34.2801C305.881 27.4773 308.663 13.1524 301.297 6.86549C299.548 5.37292 298.417 3.48543 296.162 2.74259C294.892 2.32437 291.368 0.0420721 290.156 1.45752C289.029 2.77379 288.184 5.39275 288.184 7.2403C288.184 9.44454 288.184 11.6488 288.184 13.853C288.184 15.4737 289.01 20.2391 289.01 18.6185C289.01 16.2179 288.597 13.6966 288.597 11.4435C288.597 9.97144 287.067 7.21531 285.938 6.83872C282.543 5.70585 278.162 2.63728 276.31 8.04347C275.117 11.5268 278.088 16.2476 279.703 18.672C281.254 21.0015 282.68 23.033 284.471 25.1241C287.573 28.7471 291.926 30.615 295.107 33.9589C296.225 35.1337 296.66 36.2356 298.087 37.118C300.214 38.4327 302.674 40.3804 305.194 40.5984C308.209 40.8592 311.329 42.0441 314.409 42.0441C319.276 42.0441 324.144 42.0441 329.011 42.0441C334.409 42.0441 339.957 44.3133 345.31 44.9087C349.196 45.341 353.012 46.9651 356.886 47.8268C363.395 49.2747 369.908 51.0885 376.256 53.2348C381.629 55.0512 386.664 57.4506 392.257 58.3215C404.103 60.1662 414.845 55.9027 426 52.6458" stroke="black" stroke-linecap="round"/>
</svg>
