<svg width="949" height="99" viewBox="0 0 949 99" fill="none" xmlns="http://www.w3.org/2000/svg">
<path d="M1 53.302C21.7747 53.302 42.7447 60.7465 62.5935 65.559C105.589 75.9836 149.325 87.2877 193.377 93.0281C215.482 95.9086 238.158 97.5034 260.463 97.7274C290.005 98.024 319.817 98.6143 349.26 95.9833C370.943 94.0458 392.431 88.7913 413.574 84.017C426.406 81.1195 436.342 75.1155 446.013 66.867C460.956 54.1225 468.615 37.7649 464.234 18.4691C462.765 11.9951 455.012 -0.625561 446.116 1.17375C437.264 2.96415 434.07 12.3588 432.001 19.3896C431.326 21.6817 431.227 24.742 431.59 27.141C431.833 28.7451 433.386 30.9923 433.386 28.013C433.386 24.7356 429.719 19.7471 427.843 16.8704C426.111 14.2141 424.542 9.70031 420.914 9.70031C415.853 9.70031 412.464 12.5305 411.418 17.3548C409.26 27.312 414.105 34.6529 420.914 41.9172C424.896 46.166 430.054 50.3224 434.516 54.1741C440.382 59.2384 445.881 64.745 451.864 69.6769C469.625 84.3157 489.727 90.5373 513.047 92.8827C572.45 98.8571 631.512 90.9748 689.307 78.3973C777.226 59.2644 865.112 40.7812 948 6.21217" stroke="black" stroke-linecap="round"/>
</svg>
