<svg width="1026" height="106" viewBox="0 0 1026 106" fill="none" xmlns="http://www.w3.org/2000/svg">
<path d="M1 90.4721C12.2527 90.4721 22.6594 93.2128 33.6694 95.8334C44.5791 98.4301 55.4407 100.314 66.5352 101.312C98.5159 104.192 131.296 106.677 163.315 103.551C198.512 100.116 232.904 86.4084 267.464 78.2766C280.863 75.124 294.423 72.976 307.748 69.3804C322.816 65.3145 337.584 60.3473 352.846 57.3617C381.198 51.8155 408.95 51.2345 437.639 51.2345C461.076 51.2345 482.727 56.961 505.533 62.8997C538.593 71.509 571.041 81.7752 605.162 81.9883C625.243 82.1137 643.669 78.2792 663.132 72.444C672.976 69.4925 684.731 65.2948 693.59 59.247C703.547 52.4501 709.311 35.9818 709.311 22.8373C709.311 13.4671 696.344 4.57358 688.776 4.57358C681.759 4.57358 681.898 13.3537 681.898 19.8916C681.898 22.3844 682.782 31.0907 682.782 24.1335C682.782 19.9096 683.331 15.3342 681.898 11.4667C680.171 6.80644 664.668 -4.41384 663.377 4.10226C659.684 28.4614 682.528 47.8417 698.798 55.4764C723.431 67.0359 751.682 65.6988 777.646 64.4315C820.968 62.3171 863.785 60.2275 906.997 66.0812C936.145 70.0296 965.296 74.1591 994.247 79.8673C1004.29 81.8475 1015.44 82.9909 1025 87.2907" stroke="black" stroke-linecap="round"/>
</svg>
