<svg width="1023" height="94" viewBox="0 0 1023 94" fill="none" xmlns="http://www.w3.org/2000/svg">
<path d="M-2 42.2881C-2 45.6156 1.72239 47.4757 4.98139 49.731C31.3125 67.9531 67.0518 78.0328 103.004 83.3547C119.899 85.8557 136.853 86.9392 153.949 88.382C171.155 89.834 187.941 91.8294 205.319 92.2014C247.792 93.1104 291.268 94.1861 333.39 89.5572C360.569 86.5703 391.161 81.5084 413.864 70.1664C435.215 59.4999 457.105 45.236 463.678 27.0432C466.149 20.2023 471.054 7.82755 462.498 1.90698C459.279 -0.320887 453.065 2.14416 449.903 3.04954C448.056 3.57858 446.475 5.125 444.856 5.95489C440.882 7.99225 437.075 9.83196 434.148 12.647C427.637 18.9093 426.744 27.2429 430.139 34.5187C436.933 49.0799 449.059 60.0993 467.734 68.0119C486.042 75.7689 508.397 78.4668 529.34 80.3514C560.17 83.1257 591.403 83.3526 622.457 83.42C644.166 83.4671 665.9 83.5587 687.601 83.0936C714.232 82.5227 740.674 80.0511 767.274 79.013C804.089 77.5763 841.002 77.6622 877.844 76.4994C903.363 75.694 928.809 74.383 954.356 74.0184C976.749 73.6989 999.755 74.3082 1022 72.2556" stroke="black" stroke-linecap="round"/>
</svg>
