<svg width="1024" height="44" viewBox="0 0 1024 44" fill="none" xmlns="http://www.w3.org/2000/svg">
<path d="M1 27.4241C2.71055 27.246 4.71293 26.298 6.23594 25.845C10.2234 24.6588 13.6611 23.3853 18.0376 22.5353C29.9566 20.2201 40.9615 17.0591 52.3621 14.142C69.9896 9.63162 88.7137 6.09236 107.963 4.01817C122.776 2.422 137.893 1.91017 152.967 1.53048C180.595 0.834567 208.098 0.64033 235.661 2.09291C284.027 4.64171 332.395 8.17907 380.148 12.9306C409.874 15.8883 438.698 20.4997 467.913 24.5254C517.266 31.3261 567.346 37.5271 618.259 40.0356C668.641 42.518 720.1 43.8919 770.683 42.3503C813.762 41.0373 856.39 36.8041 899.379 34.8439C930.967 33.4036 962.885 32.7187 994.582 33.5244C1003.07 33.7402 1011.59 34.2297 1020.01 34.8223C1021.92 34.9561 1023.33 35.1663 1025 35.6011" stroke="black" stroke-linecap="round"/>
</svg>
