<svg width="178" height="73" viewBox="0 0 178 73" fill="none" xmlns="http://www.w3.org/2000/svg">
<path d="M26.713 72C20.9855 72 13.5606 68.5874 9.33507 65.4276C3.55837 61.108 -1.07224 52.902 1.95601 46.5365C4.69312 40.783 11.8716 37.5668 18.679 36.3008C38.0279 32.7026 57.1808 32.4398 76.9255 32.5657C82.8912 32.6037 88.7763 33.6304 94.74 33.8227C102.561 34.075 110.449 33.8586 118.274 33.8586C131.153 33.8586 147.999 31.8276 158.488 25.4187C164.986 21.4481 170.942 16.9165 172.722 10.0831C173.339 7.71607 174.292 5.32261 175.08 2.97203C175.503 1.71079 176.144 0.298292 175.08 1.39178C172.161 4.39252 168.739 8.32886 164.688 10.55C162.773 11.6002 168.388 8.25802 169.928 6.85081C171.705 5.22657 172.274 3.30677 173.857 1.6791C174.976 0.529497 174.469 4.82602 174.469 5.73746C174.469 7.36286 177.879 11.5792 176.783 10.2268C174.971 7.99178 169.753 4.97842 169.753 2.18191" stroke="black" stroke-linecap="round"/>
</svg>
