<svg width="212" height="425" viewBox="0 0 212 425" fill="none" xmlns="http://www.w3.org/2000/svg">
<path d="M211 1C206.724 1 206.83 1.98757 204.118 4.71942C196.784 12.105 187.359 18.1133 180.113 26.1061C170.452 36.763 162.845 50.1187 153.926 61.5252C136.407 83.9296 116.98 102.151 102.894 127.46C83.8082 161.755 70.4733 198.079 64.3693 237.014C62.0199 252 59.2377 266.676 56.06 281.478C54.1634 290.313 55.4796 298.475 52.7026 307.176C46.6776 326.055 42.2714 345.856 35.0767 364.489C32.2643 371.773 30.8432 378.807 25.5084 384.777C19.4844 391.518 18.0084 401.471 10.8201 407.263C9.33853 408.456 5.65274 414.331 5.53237 416.392C5.31444 420.123 2.45007 421.079 1 424" stroke="black" stroke-linecap="round"/>
</svg>
